<?xml version="1.0" standalone="no"?>
<!DOCTYPE svg PUBLIC "-//W3C//DTD SVG 20010904//EN"
 "http://www.w3.org/TR/2001/REC-SVG-20010904/DTD/svg10.dtd">
<svg version="1.0" xmlns="http://www.w3.org/2000/svg"
 width="102.000000pt" height="102.000000pt" viewBox="0 0 102.000000 102.000000"
 preserveAspectRatio="xMidYMid meet">
<metadata>
Created by potrace 1.11, written by Peter Selinger 2001-2013
</metadata>
<g transform="translate(0.000000,102.000000) scale(0.100000,-0.100000)"
fill="#000000" stroke="none">
<path d="M593 965 c-15 -24 -31 -44 -34 -45 -3 0 -14 16 -25 35 -10 19 -22 34
-25 33 -4 -2 -23 -22 -42 -45 l-35 -43 -26 34 c-38 50 -56 67 -67 61 -14 -9
-11 -269 3 -283 24 -24 28 -10 28 99 l0 111 53 -73 c75 -106 84 -105 152 23
20 37 40 70 45 73 6 3 8 -38 6 -102 -2 -108 7 -165 24 -147 7 8 16 225 11 289
-2 38 -38 27 -68 -20z m-51 -66 c3 -17 -32 -89 -44 -89 -10 0 -48 56 -48 70 0
7 12 27 28 44 27 32 27 32 44 11 9 -11 18 -28 20 -36z"/>
<path d="M437 656 c-52 -19 -73 -40 -93 -92 -21 -56 -15 -144 13 -182 48 -64
179 -95 249 -59 41 21 60 45 47 58 -7 7 -22 2 -47 -15 -33 -22 -45 -24 -98
-20 -99 8 -138 47 -138 139 0 64 25 110 76 137 40 21 47 21 91 10 47 -12 62
-24 94 -72 8 -12 20 -21 27 -19 21 7 -23 86 -58 104 -45 23 -117 28 -163 11z"/>
<path d="M73 440 c-6 -22 -11 -24 -32 -11 -17 11 -43 3 -35 -10 3 -5 16 -9 29
-9 35 0 37 -14 4 -29 -16 -7 -27 -17 -23 -22 7 -13 38 -11 52 3 9 9 16 7 32
-7 l21 -19 -26 -13 c-14 -8 -25 -18 -25 -23 0 -13 26 -13 49 0 14 7 23 4 37
-11 17 -19 17 -20 -4 -35 -12 -8 -22 -19 -22 -25 0 -15 36 -11 50 6 7 8 18 15
26 15 21 0 26 -19 10 -36 -35 -34 -12 -45 35 -17 27 16 30 16 46 0 16 -16 16
-17 1 -17 -24 0 -52 -41 -35 -52 18 -12 23 -10 54 16 18 15 34 21 42 17 9 -6
5 -13 -13 -24 -14 -10 -30 -26 -36 -37 -9 -18 -8 -20 15 -20 15 0 36 11 50 26
22 24 27 25 56 15 31 -11 54 -7 44 8 -2 5 -18 11 -34 14 -28 6 -28 7 -18 46 8
28 8 46 0 63 l-11 23 -11 -28 c-6 -16 -11 -39 -11 -53 0 -27 -3 -28 -29 -14
-15 7 -17 18 -13 58 3 32 0 52 -8 57 -16 10 -19 4 -28 -44 -7 -41 -7 -41 -30
-25 -18 13 -22 22 -17 45 4 15 2 36 -4 46 -9 16 -11 15 -20 -9 -6 -15 -8 -35
-4 -44 5 -15 4 -15 -20 1 -22 14 -26 23 -22 56 2 21 -1 41 -6 44 -10 7 -30
-35 -22 -47 2 -5 0 -8 -6 -8 -19 0 -32 37 -21 64 6 17 6 27 -1 32 -6 3 -13 -3
-16 -15 -3 -12 -11 -21 -18 -21 -18 0 -27 28 -15 50 13 24 13 40 -1 40 -6 0
-13 -9 -16 -20z"/>
<path d="M925 422 c4 -28 2 -42 -8 -51 -12 -9 -16 -7 -21 14 -8 32 -26 33 -26
1 0 -34 23 -51 43 -31 13 13 19 13 43 0 37 -19 53 -7 24 17 -13 11 -25 25 -26
33 -4 30 -16 55 -26 55 -6 0 -7 -15 -3 -38z"/>
<path d="M976 422 c-10 -9 -7 -20 8 -25 8 -3 19 0 25 7 9 10 7 15 -8 19 -11 3
-22 2 -25 -1z"/>
<path d="M822 358 c-6 -8 -9 -28 -6 -44 4 -25 0 -34 -20 -47 -24 -16 -24 -16
-24 19 0 19 -3 38 -7 42 -12 12 -25 -23 -19 -54 5 -25 1 -34 -20 -47 -29 -19
-40 -22 -31 -6 11 16 -5 81 -18 76 -16 -5 -25 -47 -16 -78 6 -22 3 -29 -17
-38 -22 -10 -24 -8 -24 14 0 13 -5 36 -10 51 -20 51 -42 -8 -26 -66 7 -24 3
-28 -46 -48 -50 -21 -108 -81 -108 -111 0 -22 18 -10 43 27 16 26 44 48 79 64
l53 26 25 -28 c26 -29 66 -45 75 -30 3 5 -10 25 -30 44 -19 19 -30 38 -25 41
5 3 18 -3 30 -15 11 -11 24 -20 29 -20 5 0 16 -3 25 -6 26 -10 19 22 -10 49
-23 22 -24 25 -8 31 10 4 32 0 51 -11 41 -22 54 -11 24 21 l-23 24 21 7 c13 4
27 1 37 -9 17 -17 54 -22 54 -7 0 6 -10 17 -22 25 -21 15 -21 16 -4 35 14 15
23 18 37 11 21 -12 49 -13 49 -2 0 4 -13 15 -29 25 -25 15 -30 15 -41 2 -13
-16 -35 -21 -26 -6 4 5 2 19 -2 31 -7 18 -10 19 -20 8z"/>
<path d="M520 80 c0 -14 42 -70 52 -70 14 0 9 20 -14 50 -22 30 -38 38 -38 20z"/>
</g>
</svg>
